<mxfile host="app.diagrams.net" modified="2023-04-26T09:12:39.413Z" agent="5.0 (Windows NT 10.0; Win64; x64) AppleWebKit/537.36 (KHTML, like Gecko) Chrome/112.0.0.0 Safari/537.36" etag="u8qpISVj7nBzQjMWUBQ8" version="21.0.6" type="github">
  <diagram name="第 1 页" id="aaP3GK_jZ9bU11ert6XZ">
    <mxGraphModel dx="1064" dy="499" grid="1" gridSize="10" guides="1" tooltips="1" connect="1" arrows="1" fold="1" page="1" pageScale="1" pageWidth="827" pageHeight="1169" math="0" shadow="0">
      <root>
        <mxCell id="0" />
        <mxCell id="1" parent="0" />
        <mxCell id="LwNLeqrQ99i-evR5qnPA-25" value="" style="edgeStyle=orthogonalEdgeStyle;rounded=0;orthogonalLoop=1;jettySize=auto;html=1;" edge="1" parent="1" source="LwNLeqrQ99i-evR5qnPA-1" target="LwNLeqrQ99i-evR5qnPA-24">
          <mxGeometry relative="1" as="geometry" />
        </mxCell>
        <mxCell id="LwNLeqrQ99i-evR5qnPA-1" value="" style="ellipse;whiteSpace=wrap;html=1;aspect=fixed;fillColor=#ffe6cc;strokeColor=#d79b00;" vertex="1" parent="1">
          <mxGeometry x="120" y="60" width="20" height="20" as="geometry" />
        </mxCell>
        <mxCell id="LwNLeqrQ99i-evR5qnPA-2" value="" style="endArrow=classic;html=1;rounded=0;exitX=0.667;exitY=1;exitDx=0;exitDy=0;entryX=0.5;entryY=0;entryDx=0;entryDy=0;exitPerimeter=0;" edge="1" parent="1" source="LwNLeqrQ99i-evR5qnPA-24" target="LwNLeqrQ99i-evR5qnPA-3">
          <mxGeometry width="50" height="50" relative="1" as="geometry">
            <mxPoint x="130" y="145" as="sourcePoint" />
            <mxPoint x="170" y="215" as="targetPoint" />
            <Array as="points" />
          </mxGeometry>
        </mxCell>
        <mxCell id="LwNLeqrQ99i-evR5qnPA-5" value="" style="edgeStyle=orthogonalEdgeStyle;rounded=0;orthogonalLoop=1;jettySize=auto;html=1;" edge="1" parent="1" source="LwNLeqrQ99i-evR5qnPA-3" target="LwNLeqrQ99i-evR5qnPA-4">
          <mxGeometry relative="1" as="geometry" />
        </mxCell>
        <mxCell id="LwNLeqrQ99i-evR5qnPA-3" value="&lt;font style=&quot;font-size: 14px;&quot;&gt;1×1 Conv&lt;/font&gt;" style="rounded=0;whiteSpace=wrap;html=1;fillColor=#f8cecc;strokeColor=#b85450;" vertex="1" parent="1">
          <mxGeometry x="150" y="180" width="80" height="40" as="geometry" />
        </mxCell>
        <mxCell id="LwNLeqrQ99i-evR5qnPA-7" value="" style="edgeStyle=orthogonalEdgeStyle;rounded=0;orthogonalLoop=1;jettySize=auto;html=1;" edge="1" parent="1" source="LwNLeqrQ99i-evR5qnPA-4" target="LwNLeqrQ99i-evR5qnPA-6">
          <mxGeometry relative="1" as="geometry" />
        </mxCell>
        <mxCell id="LwNLeqrQ99i-evR5qnPA-4" value="&lt;font style=&quot;font-size: 14px;&quot;&gt;MHSA&lt;br&gt;&lt;/font&gt;" style="rounded=0;whiteSpace=wrap;html=1;fillColor=#b1ddf0;strokeColor=#10739e;" vertex="1" parent="1">
          <mxGeometry x="145" y="250" width="90" height="40" as="geometry" />
        </mxCell>
        <mxCell id="LwNLeqrQ99i-evR5qnPA-6" value="&lt;font style=&quot;font-size: 14px;&quot;&gt;1×1 Conv&lt;/font&gt;" style="rounded=0;whiteSpace=wrap;html=1;fillColor=#f8cecc;strokeColor=#b85450;" vertex="1" parent="1">
          <mxGeometry x="150" y="320" width="80" height="40" as="geometry" />
        </mxCell>
        <mxCell id="LwNLeqrQ99i-evR5qnPA-8" value="" style="endArrow=classic;html=1;rounded=0;" edge="1" parent="1" target="LwNLeqrQ99i-evR5qnPA-12">
          <mxGeometry width="50" height="50" relative="1" as="geometry">
            <mxPoint x="110" y="140" as="sourcePoint" />
            <mxPoint x="80" y="400" as="targetPoint" />
            <Array as="points">
              <mxPoint x="70" y="180" />
              <mxPoint x="70" y="380" />
            </Array>
          </mxGeometry>
        </mxCell>
        <mxCell id="LwNLeqrQ99i-evR5qnPA-16" value="" style="edgeStyle=orthogonalEdgeStyle;rounded=0;orthogonalLoop=1;jettySize=auto;html=1;" edge="1" parent="1" source="LwNLeqrQ99i-evR5qnPA-12" target="LwNLeqrQ99i-evR5qnPA-15">
          <mxGeometry relative="1" as="geometry" />
        </mxCell>
        <mxCell id="LwNLeqrQ99i-evR5qnPA-12" value="&lt;font style=&quot;font-size: 14px;&quot;&gt;Concat&lt;/font&gt;" style="rounded=0;whiteSpace=wrap;html=1;fillColor=#e1d5e7;strokeColor=#9673a6;" vertex="1" parent="1">
          <mxGeometry x="75" y="430" width="110" height="40" as="geometry" />
        </mxCell>
        <mxCell id="LwNLeqrQ99i-evR5qnPA-18" value="" style="edgeStyle=orthogonalEdgeStyle;rounded=0;orthogonalLoop=1;jettySize=auto;html=1;" edge="1" parent="1" source="LwNLeqrQ99i-evR5qnPA-15" target="LwNLeqrQ99i-evR5qnPA-17">
          <mxGeometry relative="1" as="geometry" />
        </mxCell>
        <mxCell id="LwNLeqrQ99i-evR5qnPA-15" value="&lt;font style=&quot;font-size: 14px;&quot;&gt;Channel Shuffle&lt;/font&gt;" style="whiteSpace=wrap;html=1;fillColor=#dae8fc;strokeColor=#6c8ebf;rounded=0;" vertex="1" parent="1">
          <mxGeometry x="75" y="500" width="110" height="40" as="geometry" />
        </mxCell>
        <mxCell id="LwNLeqrQ99i-evR5qnPA-17" value="" style="ellipse;whiteSpace=wrap;html=1;aspect=fixed;fillColor=#ffe6cc;strokeColor=#d79b00;" vertex="1" parent="1">
          <mxGeometry x="120" y="565" width="20" height="20" as="geometry" />
        </mxCell>
        <mxCell id="LwNLeqrQ99i-evR5qnPA-19" value="&lt;font style=&quot;font-size: 14px;&quot;&gt;BN Relu&lt;/font&gt;" style="text;html=1;strokeColor=none;fillColor=none;align=center;verticalAlign=middle;whiteSpace=wrap;rounded=0;" vertex="1" parent="1">
          <mxGeometry x="190" y="220" width="60" height="30" as="geometry" />
        </mxCell>
        <mxCell id="LwNLeqrQ99i-evR5qnPA-20" value="&lt;font style=&quot;font-size: 14px;&quot;&gt;BN Relu&lt;/font&gt;" style="text;html=1;strokeColor=none;fillColor=none;align=center;verticalAlign=middle;whiteSpace=wrap;rounded=0;" vertex="1" parent="1">
          <mxGeometry x="190" y="360" width="60" height="30" as="geometry" />
        </mxCell>
        <mxCell id="LwNLeqrQ99i-evR5qnPA-21" value="&lt;font style=&quot;font-size: 14px;&quot;&gt;BN&lt;/font&gt;" style="text;html=1;strokeColor=none;fillColor=none;align=center;verticalAlign=middle;whiteSpace=wrap;rounded=0;" vertex="1" parent="1">
          <mxGeometry x="190" y="290" width="60" height="30" as="geometry" />
        </mxCell>
        <mxCell id="LwNLeqrQ99i-evR5qnPA-24" value="&lt;font style=&quot;font-size: 14px;&quot;&gt;Channel Split&lt;/font&gt;" style="rounded=0;whiteSpace=wrap;html=1;fillColor=#ffff88;strokeColor=#36393d;" vertex="1" parent="1">
          <mxGeometry x="70" y="100" width="120" height="40" as="geometry" />
        </mxCell>
        <mxCell id="LwNLeqrQ99i-evR5qnPA-30" value="" style="endArrow=classic;html=1;rounded=0;entryX=0.636;entryY=0;entryDx=0;entryDy=0;entryPerimeter=0;exitX=0.5;exitY=1;exitDx=0;exitDy=0;" edge="1" parent="1" source="LwNLeqrQ99i-evR5qnPA-6" target="LwNLeqrQ99i-evR5qnPA-12">
          <mxGeometry width="50" height="50" relative="1" as="geometry">
            <mxPoint x="190" y="420" as="sourcePoint" />
            <mxPoint x="300" y="440" as="targetPoint" />
            <Array as="points">
              <mxPoint x="190" y="400" />
            </Array>
          </mxGeometry>
        </mxCell>
      </root>
    </mxGraphModel>
  </diagram>
</mxfile>
